<?xml version="1.0" encoding="UTF-8"?>
<svg id="_Слой_1" data-name="Слой 1" xmlns="http://www.w3.org/2000/svg" viewBox="0 0 663.22 424.3">
  <defs>
    <style>
      .cls-1 {
        fill: #bd1622;
      }

      .cls-2 {
        fill: #e42900;
      }
    </style>
  </defs>
  <g>
    <path d="M153.52,339.81h27.5l-7.25,45.74c-1,6.67,.91,10,5.75,10h1c2.33,0,4.04-.83,5.12-2.5,1.08-1.66,1.87-4.25,2.37-7.75l23.75-149.48h28.5l-24,151.23c-2,12.67-5.67,21.87-11,27.62-5.33,5.75-12.92,8.62-22.75,8.62h-8.25c-10.5,0-18.33-2.83-23.5-8.5-5.16-5.66-6.83-14.33-5-26l7.75-48.99Z"/>
    <path d="M228.25,380.56l23-144.73h28l-23.5,147.73c-1.34,8.67,1.16,13,7.5,13,5.5,0,8.91-4.33,10.25-13l23.5-147.73h28l-23,144.73c-2.34,14.33-6.46,25.21-12.37,32.62-5.92,7.42-14.62,11.12-26.12,11.12h-3.75c-12.17,0-21-3.83-26.5-11.5-5.5-7.66-7.16-18.41-5-32.25Z"/>
    <path d="M306.74,421.8l29.5-185.98h34l-2.5,98.24,28.75-98.24h34.25l-29.5,185.98h-25.75l19.25-120.24-35.5,120.24h-11l2-120.24-19.25,120.24h-24.25Z"/>
    <path d="M470.72,344.81h-18.5l-12,76.99h-27.5l29.5-185.98h40.49c20.66,0,29.41,10.25,26.25,30.75l-7,44.75c-3.34,22.33-13.75,33.5-31.25,33.5Zm-5-83.99l-9.25,56.74h7.5c3.83,0,6.41-1,7.75-3,1.33-2,2.5-5.58,3.5-10.75l4.75-30.25c.66-4.16,.46-7.33-.62-9.5-1.09-2.16-3.62-3.25-7.62-3.25h-6Z"/>
    <path d="M523.21,235.82h62.24l-4.25,27h-34.75l-7.75,48.74h27.25l-4.5,28.25h-27.25l-8.5,53.74h36.24l-4.5,28.25h-63.74l29.5-185.98Z"/>
    <path d="M606.45,338.81l-13.25,82.99h-27.5l29.5-185.98h41.5c20.16,0,28.83,9.58,26,28.75l-5.25,33.25c-2,12.33-7.33,20.17-16,23.5,7.16,4.67,10.08,11.92,8.75,21.75l-10,62.99c-.83,5.83-.75,10.67,.25,14.5l-.25,1.25h-27.25c-1.17-3.66-1.25-8.91-.25-15.75l8.75-54.99c.83-4.83,.75-8.08-.25-9.75-1-1.66-3.59-2.5-7.75-2.5h-7Zm12.25-77.74l-8.25,51.24h7.75c3.66,0,6.29-1,7.87-3,1.58-2,2.71-5.16,3.38-9.5l4.25-26.75c.66-4.16,.41-7.21-.75-9.12-1.17-1.91-3.67-2.87-7.5-2.87h-6.75Z"/>
  </g>
  <g>
    <path d="M246.55,89.5c-1.12,7.51-5.48,14.85-11.25,19.7h-.02c-3.91,3.35-8.5,5.52-13.13,5.84-2.3,.16-6.8-3.22-7-5.3-1.72-17.33-7.56-32.36-22.18-42.58,2.75-3.62,5.86-6.46,9.26-8.5,7.69-4.65,16.73-5.17,25.85-1.5,12.34,4.94,20.46,19.16,18.47,32.33Z"/>
    <g>
      <path class="cls-1" d="M174.52,53.36c-.94,.58,20.71,11.09,20.71,11.09l2.78-2.44-1.89-5.72-21.6-2.93Z"/>
      <path class="cls-2" d="M197.06,55.57s0,0,.01,0c.13-.18,13.53-19.27,30.23-13.38,16.78,5.91,22.45,13.99,23.59,22.76,1.14,8.77,2.12,15.02,.58,18.48-1.52,3.41-4.98,7.83-4.99,7.82-.27-.26-17.2-17.84-22.7-21.06-5.54-3.25-13.32,.5-21.81-4.44-8.43-4.91-19.9-11.17-27.45-12.35-.02,0-.03-.03,0-.03,1.6-.02,15.91-.11,22.54,2.21Z"/>
      <path class="cls-2" d="M232.6,44.28c.74-1.8,2.66,.21,3.46,.61s0,1.08,0,1.08l-3.46-1.68Z"/>
    </g>
    <g>
      <path d="M78.99,9.49c-5.57-3.43-10.6-6.45-14.85-8.91-3.97-2.3-8.14,2.67-5.19,6.18,6.13,7.29,12.83,14.14,20.09,21.1-.51-6.11-.7-12.7-.05-18.37Z"/>
      <path d="M183.65,77.63C159.82,61.55,114.49,31.53,83.19,12.09c-.45,6.25,.03,13.74,.79,20.45,22.14,20.73,49.25,43.47,81.72,82.17,7.6,9.06,21.61,12.32,29.02,8.18,5.99-3.34,8.34-7.67,8.34-16.28-.09-14.73-8.63-21.71-19.42-28.99Z"/>
    </g>
    <g>
      <path d="M21.02,86.18c-10.85,.06-18.24,.23-18.72,.6-2.87,2.23-3.08,6.54-.49,9.09,.26,.25,4.33,1.01,10.89,2.09,2.33-3.9,5.21-7.97,8.32-11.78Z"/>
      <path d="M116.15,86.25c-13.24,.35-59.96-.15-89.28-.09-3.45,3.95-6.76,8.36-9.43,12.58,23.89,3.86,69.47,10.64,95.81,15.16,11.22,2.32,23.78,1.57,25.2-10.49,1.46-12.37-10.49-17.47-22.31-17.15Z"/>
    </g>
    <path d="M151.3,159.64c-8.3,3.64-16.6,7.3-24.91,10.91-18.12,7.86-35.87,12.3-50.29-6.98-13.77,21.76-4.46,49.39,19.95,61.4,6.49,3.2,15.02,4.63,24.03,6.96,8.06-.84,28.95-4.01,42.95-15.05-4.03-3.52-8.44-7.11-10.8-11.13,11.01-7.21,27.94-15.06,38.89-20.9,1.76-.94,4.35-1.59,7.16-1.95-9.4-6.45-29.11-18.9-46.96-23.26Z"/>
    <g>
      <path d="M277.34,180.47c3.16-1.84,6.44-3.49,9.79-4.95-26.98-9.9-61.92-22.8-74.49-27.77-13.91-5.5-27.78-2.62-41.09,3.07-4.61,1.97-9.22,3.98-13.82,5.98,6.92,2.2,14.54,5.53,22.82,9.99,12.02,6.48,21.85,13.48,24.96,15.76,2.36,.09,4.53,.38,6.14,.86,12.37,2.38,30.9,7.81,47.34,12.52,3.79-5.29,10.21-10.73,18.35-15.47Z"/>
      <path d="M292.63,177.55c-12.13,4.61-23.78,11.73-29.78,19.5,9.38,2.67,17.84,5,23.7,6.23,0,0,19.49,3.01,35.17-15.1,0,0-12.44-4.53-29.09-10.64Z"/>
    </g>
    <g>
      <path d="M90.83,256.12c-7.7,4.8-15.38,9.91-21.49,14.82-4.45,3.58-7.38,8.72-8.1,14.38-.54,4.24-.44,9.67,1.4,16.01,0,0,10.48-5.46,25.11-13.03,3.4-10.5,4.14-21.95,3.09-32.18Z"/>
      <path d="M170.71,225.3c-.97-1.84-2.53-3.63-4.37-5.4-6.21,5.06-14.28,9.15-24.02,12.12-6.91,2.11-13.35,3.27-18.02,3.9-4.07,3.02-16.68,9.92-29.92,18.01,1.24,10.05,.85,21.34-1.96,31.96,23.25-12,54.46-27.99,72.07-36.48,10.29-4.96,11.6-13.87,6.21-24.1Z"/>
    </g>
  </g>
</svg>