<?xml version="1.0" encoding="UTF-8"?>
<svg id="_Слой_1" data-name="Слой 1" xmlns="http://www.w3.org/2000/svg" viewBox="0 0 649.6 340.64">
  <path d="M10.61,170.47H45.08l-9.09,57.35c-1.25,8.36,1.15,12.54,7.21,12.54h1.25c2.92,0,5.06-1.04,6.42-3.13,1.36-2.09,2.35-5.33,2.98-9.71L83.63,40.11h35.73l-30.08,189.59c-2.51,15.88-7.1,27.42-13.79,34.63-6.69,7.21-16.19,10.81-28.52,10.81h-10.34c-13.16,0-22.98-3.55-29.46-10.65-6.47-7.1-8.56-17.96-6.27-32.59l9.71-61.42Z"/>
  <path d="M104.31,221.55l28.83-181.44h35.1l-29.46,185.21c-1.67,10.87,1.46,16.29,9.4,16.29,6.89,0,11.17-5.43,12.85-16.29l29.46-185.21h35.1l-28.83,181.44c-2.93,17.97-8.1,31.6-15.51,40.9-7.42,9.3-18.33,13.95-32.75,13.95h-4.7c-15.25,0-26.32-4.8-33.22-14.42-6.89-9.61-8.98-23.08-6.27-40.43Z"/>
  <path d="M202.7,273.26L239.68,40.11h42.62l-3.13,123.16,36.04-123.16h42.93l-36.98,233.15h-32.28l24.13-150.73-44.5,150.73h-13.79l2.51-150.73-24.13,150.73h-30.4Z"/>
  <path d="M408.28,176.74h-23.19l-15.04,96.52h-34.47l36.98-233.15h50.77c25.9,0,36.87,12.85,32.9,38.54l-8.77,56.09c-4.18,28-17.24,41.99-39.17,41.99Zm-6.27-105.29l-11.59,71.13h9.4c4.8,0,8.04-1.25,9.71-3.76,1.67-2.51,3.13-7,4.39-13.47l5.95-37.92c.83-5.22,.57-9.19-.78-11.91-1.36-2.71-4.54-4.07-9.56-4.07h-7.52Z"/>
  <path d="M474.08,40.11h78.03l-5.33,33.84h-43.56l-9.71,61.11h34.16l-5.64,35.41h-34.16l-10.65,67.38h45.44l-5.64,35.41h-79.91l36.98-233.15Z"/>
  <path d="M578.43,169.22l-16.61,104.04h-34.47l36.98-233.15h52.02c25.28,0,36.14,12.02,32.59,36.04l-6.58,41.68c-2.51,15.46-9.2,25.28-20.06,29.46,8.98,5.85,12.64,14.94,10.97,27.26l-12.54,78.97c-1.05,7.31-.94,13.37,.31,18.18l-.31,1.57h-34.16c-1.46-4.59-1.57-11.17-.31-19.74l10.97-68.94c1.04-6.06,.94-10.13-.31-12.22-1.25-2.09-4.5-3.13-9.71-3.13h-8.77Zm15.36-97.46l-10.34,64.24h9.71c4.59,0,7.88-1.25,9.87-3.76,1.98-2.51,3.39-6.47,4.23-11.91l5.33-33.53c.83-5.22,.52-9.04-.94-11.44-1.46-2.4-4.6-3.6-9.4-3.6h-8.46Z"/>
</svg>