<?xml version="1.0" encoding="UTF-8"?>
<svg id="_Слой_1" data-name="Слой 1" xmlns="http://www.w3.org/2000/svg" viewBox="0 0 530.69 726.7">
  <defs>
    <style>
      .cls-1 {
        fill: #bd1622;
      }

      .cls-2 {
        fill: #e42900;
      }
    </style>
  </defs>
  <g>
    <path d="M8.47,642.21h27.5l-7.25,45.74c-1,6.67,.91,10,5.75,10h1c2.33,0,4.04-.83,5.12-2.5,1.08-1.66,1.87-4.25,2.37-7.75l23.75-149.48h28.5l-24,151.23c-2,12.67-5.67,21.87-11,27.62-5.33,5.75-12.92,8.62-22.75,8.62h-8.25c-10.5,0-18.33-2.83-23.5-8.5-5.16-5.66-6.83-14.33-5-26l7.75-48.99Z"/>
    <path d="M83.21,682.95l23-144.73h28l-23.5,147.73c-1.34,8.67,1.16,13,7.5,13,5.5,0,8.91-4.33,10.25-13l23.5-147.73h28l-23,144.73c-2.34,14.33-6.46,25.21-12.37,32.62-5.92,7.42-14.62,11.12-26.12,11.12h-3.75c-12.17,0-21-3.83-26.5-11.5-5.5-7.66-7.16-18.41-5-32.25Z"/>
    <path d="M161.69,724.2l29.5-185.98h34l-2.5,98.24,28.75-98.24h34.25l-29.5,185.98h-25.75l19.25-120.24-35.5,120.24h-11l2-120.24-19.25,120.24h-24.25Z"/>
    <path d="M325.67,647.21h-18.5l-12,76.99h-27.5l29.5-185.98h40.49c20.66,0,29.41,10.25,26.25,30.75l-7,44.75c-3.34,22.33-13.75,33.5-31.25,33.5Zm-5-83.99l-9.25,56.74h7.5c3.83,0,6.41-1,7.75-3,1.33-2,2.5-5.58,3.5-10.75l4.75-30.25c.66-4.16,.46-7.33-.62-9.5-1.09-2.16-3.62-3.25-7.62-3.25h-6Z"/>
    <path d="M378.16,538.22h62.24l-4.25,27h-34.75l-7.75,48.74h27.25l-4.5,28.25h-27.25l-8.5,53.74h36.24l-4.5,28.25h-63.74l29.5-185.98Z"/>
    <path d="M461.4,641.21l-13.25,82.99h-27.5l29.5-185.98h41.5c20.16,0,28.83,9.58,26,28.75l-5.25,33.25c-2,12.33-7.33,20.17-16,23.5,7.16,4.67,10.08,11.92,8.75,21.75l-10,62.99c-.83,5.83-.75,10.67,.25,14.5l-.25,1.25h-27.25c-1.17-3.66-1.25-8.91-.25-15.75l8.75-54.99c.83-4.83,.75-8.08-.25-9.75-1-1.66-3.59-2.5-7.75-2.5h-7Zm12.25-77.74l-8.25,51.24h7.75c3.66,0,6.29-1,7.87-3,1.58-2,2.71-5.16,3.38-9.5l4.25-26.75c.66-4.16,.41-7.21-.75-9.12-1.17-1.91-3.67-2.87-7.5-2.87h-6.75Z"/>
  </g>
  <g>
    <path d="M412.47,140.76c-1.76,11.82-8.62,23.35-17.69,30.98h-.03c-6.15,5.27-13.36,8.69-20.64,9.18-3.62,.25-10.69-5.06-11.01-8.33-2.71-27.25-11.89-50.89-34.89-66.96,4.33-5.7,9.21-10.16,14.56-13.36,12.1-7.31,26.3-8.12,40.65-2.36,19.41,7.77,32.18,30.14,29.05,50.85Z"/>
    <g>
      <path class="cls-1" d="M299.2,83.92c-1.47,.92,32.57,17.44,32.57,17.44l4.37-3.84-2.97-8.99-33.98-4.6Z"/>
      <path class="cls-2" d="M334.64,87.39s.01,.01,.02,0c.2-.28,21.28-30.3,47.55-21.05,26.4,9.3,35.3,22,37.1,35.79,1.8,13.79,3.33,23.61,.91,29.06-2.39,5.36-7.83,12.31-7.85,12.3-.43-.41-27.05-28.06-35.69-33.12-8.71-5.1-20.94,.79-34.3-6.98-13.26-7.72-31.29-17.56-43.16-19.43-.03,0-.05-.04-.02-.04,2.52-.03,25.03-.17,35.44,3.47Z"/>
      <path class="cls-2" d="M390.53,69.64c1.16-2.83,4.19,.32,5.45,.96s0,1.69,0,1.69l-5.45-2.65Z"/>
    </g>
    <g>
      <path d="M148.96,14.93c-8.75-5.39-16.66-10.14-23.36-14.01-6.25-3.61-12.8,4.21-8.16,9.73,9.65,11.46,20.17,22.23,31.59,33.18-.8-9.6-1.1-19.97-.08-28.89Z"/>
      <path d="M313.54,122.08c-37.47-25.29-108.75-72.49-157.98-103.06-.7,9.83,.05,21.62,1.24,32.17,34.81,32.6,77.45,68.36,128.52,129.23,11.95,14.24,33.98,19.37,45.64,12.86,9.41-5.26,13.11-12.06,13.11-25.6-.14-23.16-13.57-34.14-30.53-45.59Z"/>
    </g>
    <g>
      <path d="M57.78,135.53c-17.06,.09-28.68,.36-29.43,.94-4.52,3.5-4.85,10.29-.77,14.3,.4,.4,6.81,1.58,17.13,3.29,3.67-6.13,8.2-12.53,13.08-18.53Z"/>
      <path d="M207.39,135.64c-20.82,.55-94.3-.23-140.41-.13-5.42,6.2-10.63,13.14-14.82,19.78,37.57,6.06,109.25,16.73,150.68,23.83,17.65,3.65,37.4,2.47,39.64-16.5,2.29-19.46-16.49-27.47-35.08-26.98Z"/>
    </g>
    <path d="M262.67,251.05c-13.06,5.73-26.1,11.49-39.18,17.16-28.5,12.36-56.41,19.34-79.09-10.98-21.65,34.22-7.02,77.67,31.37,96.56,10.21,5.03,23.61,7.29,37.78,10.94,12.68-1.32,45.53-6.31,67.54-23.67-6.34-5.53-13.28-11.18-16.98-17.5,17.32-11.33,43.95-23.69,61.15-32.87,2.77-1.48,6.84-2.49,11.26-3.07-14.79-10.15-45.78-29.73-73.85-36.58Z"/>
    <g>
      <path d="M460.89,283.82c4.97-2.89,10.13-5.49,15.4-7.78-42.44-15.57-97.38-35.85-117.14-43.67-21.88-8.66-43.69-4.12-64.63,4.83-7.26,3.1-14.5,6.25-21.73,9.41,10.89,3.46,22.86,8.69,35.89,15.71,18.9,10.18,34.37,21.21,39.26,24.79,3.71,.14,7.12,.59,9.65,1.35,19.45,3.75,48.59,12.28,74.44,19.68,5.97-8.31,16.05-16.88,28.86-24.33Z"/>
      <path d="M484.94,279.22c-19.07,7.25-37.4,18.45-46.84,30.67,14.76,4.2,28.05,7.86,37.28,9.8,0,0,30.65,4.73,55.32-23.74,0,0-19.56-7.13-45.75-16.73Z"/>
    </g>
    <g>
      <path d="M167.57,402.79c-12.11,7.54-24.18,15.58-33.8,23.31-7,5.63-11.61,13.71-12.74,22.62-.85,6.66-.69,15.21,2.2,25.18,0,0,16.48-8.59,39.49-20.49,5.35-16.52,6.51-34.52,4.85-50.61Z"/>
      <path d="M293.19,354.31c-1.52-2.89-3.98-5.7-6.87-8.5-9.76,7.95-22.46,14.39-37.77,19.06-10.86,3.31-20.99,5.14-28.33,6.14-6.4,4.75-26.23,15.61-47.05,28.33,1.96,15.8,1.33,33.56-3.08,50.26,36.56-18.88,85.65-44.02,113.34-57.38,16.18-7.8,18.24-21.81,9.77-37.9Z"/>
    </g>
  </g>
</svg>